<svg xmlns="http://www.w3.org/2000/svg" viewBox="0 0 128 128" role="img" aria-label="TikTok Video Creator">
  <rect width="128" height="128" rx="28" fill="#0f0f13"/>
  <path d="M47 82c0 9 7 16 17 16 11 0 18-7 18-18V38c6 8 14 13 25 14V35c-10-1-18-8-21-18H68v61c0 4-2 7-6 7s-7-3-7-7 3-7 7-7c2 0 4 1 5 2V56c-2-1-5-1-7-1-8 0-13 3-17 8l-7-6c6-8 14-12 24-12h1v13c-13 0-24 10-24 24z" fill="#25F4EE"/>
  <path d="M39 78c0 10 8 18 19 18 12 0 20-8 20-20V34c6 8 14 13 25 14V31c-10-1-18-8-21-18H64v61c0 4-2 7-6 7s-7-3-7-7 3-7 7-7c2 0 4 1 5 2V52c-2-1-5-1-7-1-14 0-25 12-25 27z" fill="#FE2C55" opacity=".95"/>
  <circle cx="97" cy="93" r="14" fill="#fff"/>
  <path d="M93 86l12 7-12 7V86z" fill="#0f0f13"/>
</svg>
