<svg xmlns="http://www.w3.org/2000/svg" viewBox="0 0 128 128" role="img" aria-label="TikTok Video Creator">
  <defs>
    <linearGradient id="bg" x1="16" y1="14" x2="112" y2="116" gradientUnits="userSpaceOnUse">
      <stop stop-color="#202027"/>
      <stop offset="1" stop-color="#050506"/>
    </linearGradient>
    <linearGradient id="edge" x1="16" y1="12" x2="112" y2="116" gradientUnits="userSpaceOnUse">
      <stop stop-color="#3f3f46"/>
      <stop offset=".52" stop-color="#1f2937"/>
      <stop offset="1" stop-color="#000000"/>
    </linearGradient>
    <linearGradient id="cyan" x1="29" y1="33" x2="99" y2="91" gradientUnits="userSpaceOnUse">
      <stop stop-color="#25f4ee"/>
      <stop offset="1" stop-color="#007aff"/>
    </linearGradient>
    <linearGradient id="pink" x1="28" y1="86" x2="105" y2="35" gradientUnits="userSpaceOnUse">
      <stop stop-color="#fe2c55"/>
      <stop offset="1" stop-color="#ff7a9a"/>
    </linearGradient>
    <filter id="softGlow" x="-40%" y="-40%" width="180%" height="180%">
      <feGaussianBlur stdDeviation="5" result="blur"/>
      <feComposite in="SourceGraphic" in2="blur" operator="over"/>
    </filter>
  </defs>
  <rect x="6" y="6" width="116" height="116" rx="28" fill="url(#bg)"/>
  <rect x="6.75" y="6.75" width="114.5" height="114.5" rx="27.25" fill="none" stroke="url(#edge)" stroke-width="1.5"/>
  <path d="M27 38c10-16 30-20 47-11 8 4 16 4 25-1-5 13-14 23-27 25-17 3-32-3-45-13Z" fill="url(#cyan)" opacity=".2" filter="url(#softGlow)"/>
  <path d="M99 91c-10 16-30 20-47 11-8-4-16-4-25 1 5-13 14-23 27-25 17-3 32 3 45 13Z" fill="url(#pink)" opacity=".22" filter="url(#softGlow)"/>
  <g fill="none" stroke-linejoin="round">
    <path d="M45 36l42 28-42 28V36Z" stroke="url(#pink)" stroke-width="11" opacity=".8" transform="translate(4 -2)"/>
    <path d="M45 36l42 28-42 28V36Z" stroke="url(#cyan)" stroke-width="11" opacity=".85" transform="translate(-4 2)"/>
    <path d="M45 36l42 28-42 28V36Z" stroke="#ffffff" stroke-width="8"/>
  </g>
  <path d="M52 49l23 15-23 15V49Z" fill="#ffffff"/>
  <path d="M94 30c0 8 5 13 13 13-8 0-13 5-13 13 0-8-5-13-13-13 8 0 13-5 13-13Z" fill="#ffffff"/>
  <path d="M35 84c0 5 3 8 8 8-5 0-8 3-8 8 0-5-3-8-8-8 5 0 8-3 8-8Z" fill="#25f4ee"/>
</svg>
